<?xml version="1.0" encoding="iso-8859-1"?>
<!-- Generator: Adobe Illustrator 19.0.0, SVG Export Plug-In . SVG Version: 6.00 Build 0)  -->
<svg version="1.1" id="Capa_1" xmlns="http://www.w3.org/2000/svg" xmlns:xlink="http://www.w3.org/1999/xlink" x="0px" y="0px"
	 viewBox="0 0 512 512" style="enable-background:new 0 0 512 512;" xml:space="preserve">
<path style="fill:#4F575B;" d="M256,0l-30,37.5L256,75c22.246,0,43.563,4.044,63.267,11.419L280.71,153.2
	c-5.341,8.323-14.101,12.908-24.71,12.908L226,256l30,89.892c9.47,0,19.195,5.246,24.999,13.408l38.268,66.281
	C299.563,432.956,278.246,437,256,437l-30,37.5l30,37.5c141.385,0,256-114.615,256-256S397.385,0,256,0z M412.751,346.5
	c-11.123,19.265-25.283,35.705-41.522,49.081L332.672,328.8c-4.538-8.787-4.129-18.666,1.176-27.854
	c4.735-8.201,14.141-14,24.111-14.946h76.535C431.03,306.752,423.874,327.235,412.751,346.5z M357.383,226
	c-9.879-0.464-18.229-5.758-23.534-14.946c-4.735-8.201-5.054-19.246-0.888-28.354l38.268-66.281
	c16.239,13.376,30.399,29.816,41.522,49.081s18.279,39.748,21.744,60.5H357.383z"/>
<g>
	<path style="fill:#838E92;" d="M192.733,425.581L231.29,358.8c5.341-8.323,14.101-12.908,24.71-12.908V166.108
		c-9.47,0-19.195-5.246-24.999-13.408l-38.268-66.281C212.437,79.044,233.754,75,256,75V0C114.615,0,0,114.615,0,256
		s114.615,256,256,256v-75C233.754,437,212.437,432.956,192.733,425.581z M179.039,329.3l-38.268,66.281
		c-16.239-13.376-30.399-29.816-41.522-49.081S80.97,306.752,77.505,286h77.112c9.879,0.464,18.229,5.758,23.534,14.946
		C182.886,309.147,183.206,320.192,179.039,329.3z M178.152,211.054c-4.735,8.201-14.141,14-24.111,14.946H77.506
		c3.465-20.751,10.621-41.234,21.744-60.5s25.283-35.705,41.522-49.081l38.556,66.781
		C183.865,191.988,183.456,201.866,178.152,211.054z"/>
	<path style="fill:#838E92;" d="M256,211l-20,45l20,45c24.853,0,45-20.147,45-45S280.853,211,256,211z"/>
</g>
<path style="fill:#B8C5C8;" d="M211,256c0,24.853,20.147,45,45,45v-90C231.147,211,211,231.147,211,256z"/>
<g>
</g>
<g>
</g>
<g>
</g>
<g>
</g>
<g>
</g>
<g>
</g>
<g>
</g>
<g>
</g>
<g>
</g>
<g>
</g>
<g>
</g>
<g>
</g>
<g>
</g>
<g>
</g>
<g>
</g>
</svg>
